<svg xmlns="http://www.w3.org/2000/svg" viewBox="0 0 960 540" width="960" height="540">
      <defs>
        <radialGradient id="g" cx="50%" cy="45%" r="70%"><stop stop-color="#ff4fb3" stop-opacity=".45"/><stop offset=".45" stop-color="#0c4c5a" stop-opacity=".18"/><stop offset="1" stop-color="#050505"/></radialGradient>
        <linearGradient id="l" x1="0" x2="1"><stop stop-color="#d6a94a"/><stop offset="1" stop-color="#0c4c5a"/></linearGradient>
        <filter id="blur"><feGaussianBlur stdDeviation="24"/></filter>
      </defs>
      <rect width="960" height="540" fill="#050507"/>
      <rect width="960" height="540" fill="url(#g)"/>
      <circle cx="180" cy="120" r="90" fill="#d6a94a" opacity=".22" filter="url(#blur)"/>
      <circle cx="780" cy="130" r="110" fill="#0c4c5a" opacity=".25" filter="url(#blur)"/>
      <path d="M0 425 C210 380 360 470 520 420 C700 365 790 392 960 346 L960 540 L0 540Z" fill="url(#l)" opacity=".18"/>
      
        <g transform="translate(260,330) rotate(-8)">
          <circle cx="0" cy="-120" r="34" fill="#d6a94a" opacity=".95"/>
          <path d="M0 -86 C-26 -32 24 -30 0 38" stroke="#d6a94a" stroke-width="28" stroke-linecap="round" fill="none"/>
          <path d="M-10 -55 C-78 -112 -110 -85 -138 -142" stroke="#f7efe4" stroke-width="15" stroke-linecap="round" fill="none" opacity=".9"/>
          <path d="M10 -56 C86 -110 112 -70 154 -112" stroke="#f7efe4" stroke-width="15" stroke-linecap="round" fill="none" opacity=".9"/>
          <path d="M0 30 C-48 92 -62 145 -106 188" stroke="#d6a94a" stroke-width="18" stroke-linecap="round" fill="none"/>
          <path d="M5 34 C72 70 94 132 128 180" stroke="#d6a94a" stroke-width="18" stroke-linecap="round" fill="none"/>
        </g>
        <g transform="translate(480,330) rotate(5)">
          <circle cx="0" cy="-120" r="34" fill="#ff4fb3" opacity=".95"/>
          <path d="M0 -86 C-26 -32 24 -30 0 38" stroke="#ff4fb3" stroke-width="28" stroke-linecap="round" fill="none"/>
          <path d="M-10 -55 C-78 -112 -110 -85 -138 -142" stroke="#f7efe4" stroke-width="15" stroke-linecap="round" fill="none" opacity=".9"/>
          <path d="M10 -56 C86 -110 112 -70 154 -112" stroke="#f7efe4" stroke-width="15" stroke-linecap="round" fill="none" opacity=".9"/>
          <path d="M0 30 C-48 92 -62 145 -106 188" stroke="#ff4fb3" stroke-width="18" stroke-linecap="round" fill="none"/>
          <path d="M5 34 C72 70 94 132 128 180" stroke="#ff4fb3" stroke-width="18" stroke-linecap="round" fill="none"/>
        </g>
        <g transform="translate(700,330) rotate(10)">
          <circle cx="0" cy="-120" r="34" fill="#0c4c5a" opacity=".95"/>
          <path d="M0 -86 C-26 -32 24 -30 0 38" stroke="#0c4c5a" stroke-width="28" stroke-linecap="round" fill="none"/>
          <path d="M-10 -55 C-78 -112 -110 -85 -138 -142" stroke="#f7efe4" stroke-width="15" stroke-linecap="round" fill="none" opacity=".9"/>
          <path d="M10 -56 C86 -110 112 -70 154 -112" stroke="#f7efe4" stroke-width="15" stroke-linecap="round" fill="none" opacity=".9"/>
          <path d="M0 30 C-48 92 -62 145 -106 188" stroke="#0c4c5a" stroke-width="18" stroke-linecap="round" fill="none"/>
          <path d="M5 34 C72 70 94 132 128 180" stroke="#0c4c5a" stroke-width="18" stroke-linecap="round" fill="none"/>
        </g>
      <text x="56" y="80" fill="#fff6e8" font-size="46" font-family="Arial, sans-serif" font-weight="800">Dance Moment 4</text>
      <text x="58" y="120" fill="#cfc7bb" font-size="22" font-family="Arial, sans-serif">Bharatanatyam</text>
      <rect x="56" y="452" rx="22" ry="22" width="300" height="52" fill="#000" opacity=".35" stroke="#fff" stroke-opacity=".14"/>
      <text x="82" y="486" fill="#ffd166" font-size="21" font-family="Arial, sans-serif" font-weight="700">Rhythm Within Lessons</text>
    </svg>